<svg xmlns:sketch="http://www.bohemiancoding.com/sketch/ns" xmlns="http://www.w3.org/2000/svg" xmlns:xlink="http://www.w3.org/1999/xlink" version="1.1" xml:space="preserve" width="40" height="40"><rect id="backgroundrect" width="100%" height="100%" x="0" y="0" fill="none" stroke="none"/>
<style type="text/css">
	.st0{display:none;}
	.st1{display:inline;}
	.st2{fill:#7986CB;}
	.st3{fill:#ECEFF1;}
	.st4{fill:#455A64;}
	.st5{fill:#90A4AE;}
	.st6{fill:none;stroke:#FF1744;stroke-miterlimit:10;}
	.st7{fill:#FF1744;}
</style>
<title>dashboard-icon</title>
<desc>Created with Sketch.</desc>


<g class="currentLayer"><title>Layer 1</title><g id="Page-1" sketch:type="MSPage" class="st0">
	<g id="speed" sketch:type="MSLayerGroup" class="st1">
		<path class="st2" d="M-84,109.41150442510843 c-10.9,0 -19.7,8.8 -19.7,19.7 c0,4.7 1.7000000000000002,9 4.4,12.4 l1.6,-3.1 h27.4 l1.5,3.1 c2.8,-3.4 4.4,-7.7 4.4,-12.4 C-64.3,118.21150442510843 -73.1,109.41150442510843 -84,109.41150442510843 z" id="svg_1"/>
		<path class="st3" d="M-67.4,129.11150442510842 c0,-9.1 -7.4,-16.6 -16.6,-16.6 c-9.1,0 -16.6,7.4 -16.6,16.6 c0,3.5 1.1,6.7 2.9,9.3 l-1.6,3.1 h30.5 l-1.5,-3.1 C-68.5,135.81150442510844 -67.4,132.61150442510842 -67.4,129.11150442510842 L-67.4,129.11150442510842 z" id="svg_2"/>
		<path class="st4" d="M-100.5,128.11150442510842 c0,0.3000000000000003 0,0.7000000000000006 0,1 c0,0.4 0,0.7000000000000006 0,1 h4.2 c0,-0.3000000000000003 -0.1,-0.7000000000000006 -0.1,-1 c0,-0.4 0,-0.7000000000000006 0.1,-1 L-100.5,128.11150442510842 L-100.5,128.11150442510842 zM-94.1,136.31150442510844 c-0.4,-0.6000000000000006 -0.8,-1.1 -1.1,-1.8 l-3.5,2.2 c0.3000000000000003,0.6000000000000006 0.7000000000000006,1.2 1.1,1.8 C-97.7,138.41150442510843 -94.1,136.31150442510844 -94.1,136.31150442510844 zM-91.3,119.11150442510844 c0.6000000000000006,-0.4 1.1,-0.8 1.8,-1.1 l-2.1,-3.6 c-0.6000000000000006,0.3000000000000003 -1.2,0.7000000000000006 -1.8,1.1 L-91.3,119.11150442510844 zM-95.3,123.91150442510843 c0.3000000000000003,-0.6000000000000006 0.6000000000000006,-1.2 1,-1.8 l-3.6,-2.1 c-0.4,0.6000000000000006 -0.8,1.2 -1.1,1.9 L-95.3,123.91150442510843 zM-83,116.71150442510843 v-4.2 c-0.3000000000000003,0 -0.7000000000000006,0 -1,0 s-0.7000000000000006,0 -1,0 v4.2 c0.3000000000000003,0 0.7000000000000006,-0.1 1,-0.1 S-83.3,116.71150442510843 -83,116.71150442510843 L-83,116.71150442510843 zM-73.9,136.41150442510843 l3.6,2.1 c0.4,-0.6000000000000006 0.8,-1.2 1.1,-1.8 l-3.6,-2 C-73.2,135.21150442510844 -73.5,135.81150442510844 -73.9,136.41150442510843 L-73.9,136.41150442510843 zM-67.5,130.11150442510842 c0,-0.3000000000000003 0,-0.7000000000000006 0,-1 c0,-0.3000000000000003 0,-0.7000000000000006 0,-1 h-4.2 c0,0.3000000000000003 0.1,0.7000000000000006 0.1,1 c0,0.4 0,0.7000000000000006 -0.1,1 L-67.5,130.11150442510842 L-67.5,130.11150442510842 zM-74.9,115.31150442510844 c-0.6000000000000006,-0.4 -1.2,-0.7000000000000006 -1.8,-1 l-2.1,3.6 c0.6000000000000006,0.3000000000000003 1.2,0.6000000000000006 1.8,1 C-77,118.91150442510843 -74.9,115.31150442510844 -74.9,115.31150442510844 z" id="svg_3"/>
		<path class="st5" d="M-88.1,134.31150442510844 h8.3 v2.1 h-8.3 V134.31150442510844 z" id="svg_4"/>
		<path class="st6" d="M-84,129.11150442510842 l12.4,-7.2 " id="svg_5"/>
		<path class="st7" d="M-84.1,125.91150442510843 c1.7000000000000002,0 3,1.4 3,3 c0,1.7000000000000002 -1.4,3 -3,3 c-1.7000000000000002,0 -3,-1.4 -3,-3 C-87.2,127.31150442510844 -85.8,125.91150442510843 -84.1,125.91150442510843 z" id="svg_6"/>
	</g>
</g><g sketch:type="MSPage" class="st0" id="svg_15">
	<g id="svg_17" sketch:type="MSLayerGroup" class="st1">
		<path class="st2" d="M-84,109.41150442510843 c-10.9,0 -19.7,8.8 -19.7,19.7 c0,4.7 1.7000000000000002,9 4.4,12.4 l1.6,-3.1 h27.4 l1.5,3.1 c2.8,-3.4 4.4,-7.7 4.4,-12.4 C-64.3,118.21150442510843 -73.1,109.41150442510843 -84,109.41150442510843 z" id="svg_1"/>
		<path class="st3" d="M-67.4,129.11150442510842 c0,-9.1 -7.4,-16.6 -16.6,-16.6 c-9.1,0 -16.6,7.4 -16.6,16.6 c0,3.5 1.1,6.7 2.9,9.3 l-1.6,3.1 h30.5 l-1.5,-3.1 C-68.5,135.81150442510844 -67.4,132.61150442510842 -67.4,129.11150442510842 L-67.4,129.11150442510842 z" id="svg_2"/>
		<path class="st4" d="M-100.5,128.11150442510842 c0,0.3000000000000003 0,0.7000000000000006 0,1 c0,0.4 0,0.7000000000000006 0,1 h4.2 c0,-0.3000000000000003 -0.1,-0.7000000000000006 -0.1,-1 c0,-0.4 0,-0.7000000000000006 0.1,-1 L-100.5,128.11150442510842 L-100.5,128.11150442510842 zM-94.1,136.31150442510844 c-0.4,-0.6000000000000006 -0.8,-1.1 -1.1,-1.8 l-3.5,2.2 c0.3000000000000003,0.6000000000000006 0.7000000000000006,1.2 1.1,1.8 C-97.7,138.41150442510843 -94.1,136.31150442510844 -94.1,136.31150442510844 zM-91.3,119.11150442510844 c0.6000000000000006,-0.4 1.1,-0.8 1.8,-1.1 l-2.1,-3.6 c-0.6000000000000006,0.3000000000000003 -1.2,0.7000000000000006 -1.8,1.1 L-91.3,119.11150442510844 zM-95.3,123.91150442510843 c0.3000000000000003,-0.6000000000000006 0.6000000000000006,-1.2 1,-1.8 l-3.6,-2.1 c-0.4,0.6000000000000006 -0.8,1.2 -1.1,1.9 L-95.3,123.91150442510843 zM-83,116.71150442510843 v-4.2 c-0.3000000000000003,0 -0.7000000000000006,0 -1,0 s-0.7000000000000006,0 -1,0 v4.2 c0.3000000000000003,0 0.7000000000000006,-0.1 1,-0.1 S-83.3,116.71150442510843 -83,116.71150442510843 L-83,116.71150442510843 zM-73.9,136.41150442510843 l3.6,2.1 c0.4,-0.6000000000000006 0.8,-1.2 1.1,-1.8 l-3.6,-2 C-73.2,135.21150442510844 -73.5,135.81150442510844 -73.9,136.41150442510843 L-73.9,136.41150442510843 zM-67.5,130.11150442510842 c0,-0.3000000000000003 0,-0.7000000000000006 0,-1 c0,-0.3000000000000003 0,-0.7000000000000006 0,-1 h-4.2 c0,0.3000000000000003 0.1,0.7000000000000006 0.1,1 c0,0.4 0,0.7000000000000006 -0.1,1 L-67.5,130.11150442510842 L-67.5,130.11150442510842 zM-74.9,115.31150442510844 c-0.6000000000000006,-0.4 -1.2,-0.7000000000000006 -1.8,-1 l-2.1,3.6 c0.6000000000000006,0.3000000000000003 1.2,0.6000000000000006 1.8,1 C-77,118.91150442510843 -74.9,115.31150442510844 -74.9,115.31150442510844 z" id="svg_3"/>
		<path class="st5" d="M-88.1,134.31150442510844 h8.3 v2.1 h-8.3 V134.31150442510844 z" id="svg_4"/>
		<path class="st6" d="M-84,129.11150442510842 l12.4,-7.2 " id="svg_5"/>
		<path class="st7" d="M-84.1,125.91150442510843 c1.7000000000000002,0 3,1.4 3,3 c0,1.7000000000000002 -1.4,3 -3,3 c-1.7000000000000002,0 -3,-1.4 -3,-3 C-87.2,127.31150442510844 -85.8,125.91150442510843 -84.1,125.91150442510843 z" id="svg_6"/>
	</g>
</g><path fill="#233854" fill-opacity="1" stroke="none" stroke-opacity="1" stroke-width="1" stroke-dasharray="none" stroke-linejoin="round" stroke-linecap="butt" stroke-dashoffset="" fill-rule="nonzero" opacity="1" marker-start="" marker-mid="" marker-end="" d="M20.08849523614368,0.017698843514382445 C20.08849523614368,0.017698843514382445 4.690265407557774,7.71681375780733 4.690265407557774,7.71681375780733 " style="color: rgb(134, 147, 93);" class="" id="svg_21"/><path fill="#9abcf4" fill-opacity="1" stroke="none" stroke-opacity="1" stroke-width="1" stroke-dasharray="none" stroke-linejoin="round" stroke-linecap="butt" stroke-dashoffset="" fill-rule="nonzero" opacity="1" marker-start="" marker-mid="" marker-end="" d="M20.08849523614368,0.10619441724188636 C20.08849523614368,0.10619441724188636 4.690265407557774,7.7168137578073335 4.690265407557774,7.7168137578073335 C4.690265407557774,7.7168137578073335 4.601769833830268,26.03539751940091 4.601769833830268,26.03539751940091 C4.601769833830268,26.03539751940091 4.867256555012787,37.805308825159095 20.08849523614368,39.752211447164214 " style="color: rgb(134, 147, 93);" class="" id="svg_22"/><path fill="#4fa766" fill-opacity="1" stroke="none" stroke-width="1" stroke-dasharray="none" stroke-linejoin="round" stroke-linecap="butt" stroke-dashoffset="" fill-rule="nonzero" opacity="1" marker-start="" marker-mid="" marker-end="" d="M20.088494056871284,6.416463293104235 C20.088494056871284,6.416463293104235 9.611108853977292,11.882668406765099 9.611108853977292,11.882668406765099 C9.611108853977292,11.882668406765099 9.550893996489396,25.03969699429764 9.550893996489396,25.03969699429764 C9.550893996489396,25.03969699429764 9.731538568953088,33.49324676309874 20.088494056871284,34.891578303802696 " style="color: rgb(134, 147, 93);" class="" id="svg_7"/><path fill="#4285f4" fill-opacity="1" stroke="none" stroke-opacity="1" stroke-width="1" stroke-dasharray="none" stroke-linejoin="round" stroke-linecap="butt" stroke-dashoffset="" fill-rule="nonzero" opacity="1" marker-start="" marker-mid="" marker-end="" d="M20.08849524315251,0.10619444704421147 C20.08849524315251,0.10619444704421147 35.39873592649306,7.716813787609656 35.39873592649306,7.716813787609656 C35.39873592649306,7.716813787609656 35.486725815477776,26.035397549203225 35.486725815477776,26.035397549203225 C35.486725815477776,26.035397549203225 35.22275614852363,37.80530885496142 20.08849524315251,39.752211476966544 " style="color: rgb(134, 147, 93);" class="" id="svg_23"/><path fill="#fbbc05" fill-opacity="1" stroke="none" stroke-opacity="1" stroke-width="1" stroke-dasharray="none" stroke-linejoin="round" stroke-linecap="butt" stroke-dashoffset="" fill-rule="nonzero" opacity="1" marker-start="" marker-mid="" marker-end="" d="M20.053537041843413,6.3800247257545175 C20.053537041843413,6.3800247257545175 31.18161171752548,11.853225706733229 31.18161171752548,11.853225706733229 C31.18161171752548,11.853225706733229 31.245566169684587,25.02709318420525 31.245566169684587,25.02709318420525 C31.245566169684587,25.02709318420525 31.053702813207302,33.4914621431607 20.053537041843413,34.89158332434132 " style="color: rgb(134, 147, 93);" class="" id="svg_10"/><path fill="#ea4335" fill-opacity="1" stroke="none" stroke-opacity="1" stroke-width="1" stroke-dasharray="none" stroke-linejoin="round" stroke-linecap="butt" stroke-dashoffset="" fill-rule="nonzero" opacity="1" marker-start="" marker-mid="" marker-end="" d="M20.05354,6.38002C20.05354,6.38002 31.26324,11.85323 31.26324,11.85323C31.26324,11.85323 31.24484,16.37403 31.24544,16.37403C31.24603,16.45568 31.29825,16.43024 20.05354,19.05485" style="color: rgb(134, 147, 93);" class="" id="svg_19"/><path fill="#e66156" fill-opacity="1" stroke="none" stroke-opacity="1" stroke-width="1" stroke-dasharray="none" stroke-linejoin="round" stroke-linecap="butt" stroke-dashoffset="" fill-rule="nonzero" opacity="1" marker-start="" marker-mid="" marker-end="" d="M20.05354,6.29839C20.05354,6.29839 9.59142,11.85323 9.59142,11.85323C9.59142,11.85323 9.60804,16.45566 9.61291,16.37403C9.61778,16.2924 9.55818,16.34861 20.05354,18.97322" style="color: rgb(134, 147, 93);" class="" id="svg_20"/><path fill="#325122" fill-opacity="1" stroke="none" stroke-opacity="1" stroke-width="1" stroke-dasharray="none" stroke-linejoin="round" stroke-linecap="butt" stroke-dashoffset="" fill-rule="nonzero" opacity="1" marker-start="" marker-mid="" marker-end="" d="M20.017698507094618,0.10619441724188636 C20.017698507094618,0.283185564696898 20.017698507094618,39.663715873436715 20.017698507094618,39.663715873436715 " style="color: rgb(50, 81, 34);" class="" id="svg_27"/><path fill="#325122" fill-opacity="1" stroke="none" stroke-opacity="1" stroke-width="1" stroke-dasharray="none" stroke-linejoin="round" stroke-linecap="butt" stroke-dashoffset="" fill-rule="nonzero" opacity="1" marker-start="" marker-mid="" marker-end="" d="M10.55752146463443,17.964600958088816 " style="color: rgb(50, 81, 34);" class="" id="svg_28"/><path fill="#325122" fill-opacity="1" stroke="none" stroke-opacity="1" stroke-width="1" stroke-dasharray="none" stroke-linejoin="round" stroke-linecap="butt" stroke-dashoffset="" fill-rule="nonzero" opacity="1" marker-start="" marker-mid="" marker-end="" id="svg_12" d="M20.017698507094618,0.10619441724188636 C20.017698507094618,0.283185564696898 20.017698507094618,39.663715873436715 20.017698507094618,39.663715873436715 " style="color: rgb(50, 81, 34);" class=""/><path fill="#325122" fill-opacity="1" stroke="none" stroke-opacity="1" stroke-width="1" stroke-dasharray="none" stroke-linejoin="round" stroke-linecap="butt" stroke-dashoffset="" fill-rule="nonzero" opacity="1" marker-start="" marker-mid="" marker-end="" id="svg_13" d="M10.55752146463443,17.964600958088816 " style="color: rgb(50, 81, 34);" class=""/><path fill="#4285f4" fill-opacity="1" stroke="#ffffff" stroke-opacity="1" stroke-width="0.5" stroke-dasharray="none" stroke-linejoin="round" stroke-linecap="butt" stroke-dashoffset="" fill-rule="nonzero" opacity="1" marker-start="" marker-mid="" marker-end="" d="M15.999999937867074,19.321585707283806 C15.999999937867074,17.062963766424378 17.829483709963206,15.233479994328244 20.088105650822637,15.233479994328244 C22.34672759168206,15.233479994328244 24.1762113637782,17.062963766424378 24.1762113637782,19.321585707283806 C24.1762113637782,21.580207648143233 22.34672759168206,23.40969142023937 20.088105650822637,23.40969142023937 C17.829483709963206,23.40969142023937 15.999999937867074,21.580207648143233 15.999999937867074,19.321585707283806 z" id="svg_8" class=""/><path fill="#9abcf4" fill-opacity="1" stroke="#9abcf4" stroke-width="0.06" stroke-dasharray="none" stroke-linejoin="round" stroke-linecap="butt" stroke-dashoffset="" fill-rule="nonzero" opacity="1" marker-start="" marker-mid="" marker-end="" d="M16.264320000000005,19.32159 C16.264320000000005,17.209 17.97552,15.4978 20.08811,15.4978 L20.12334,19.4097 L20.08811,23.14537 C17.97552,23.14537 16.264320000000005,21.43418 16.264320000000005,19.32159 z" class="" id="svg_14" stroke-opacity="1"/><path fill="#9abcf4" fill-opacity="1" stroke="none" stroke-opacity="1" stroke-width="0.5" stroke-dasharray="none" stroke-linejoin="round" stroke-linecap="butt" stroke-dashoffset="" fill-rule="nonzero" opacity="1" marker-start="" marker-mid="" marker-end="" id="svg_9" d="M19.991188217660905,15.409690574286689 " style="color: rgb(154, 188, 244);"/></g></svg>